<svg width="350" height="225" viewBox="0 0 350 225" fill="none" xmlns="http://www.w3.org/2000/svg">
<g clip-path="url(#clip0_13_108)">
<path d="M306.704 207.61C317.959 196.355 317.959 178.106 306.704 166.851C295.448 155.595 277.2 155.595 265.944 166.851C254.689 178.106 254.689 196.355 265.944 207.61C277.2 218.865 295.448 218.865 306.704 207.61Z" fill="#2F2E41"/>
<path d="M286.163 189.881C291.475 188.706 294.828 183.447 293.652 178.135C292.476 172.823 287.217 169.471 281.906 170.646C276.594 171.822 273.241 177.081 274.417 182.393C275.593 187.704 280.852 191.057 286.163 189.881Z" fill="white"/>
<path d="M280.754 180.926C282.525 180.534 283.642 178.781 283.25 177.01C282.858 175.24 281.105 174.122 279.335 174.514C277.564 174.906 276.447 176.659 276.838 178.43C277.23 180.2 278.983 181.318 280.754 180.926Z" fill="#3F3D56"/>
<path d="M285.185 167.746C273.398 167.724 265.124 165.619 265.143 154.94C265.163 144.261 274.734 135.621 286.522 135.643C298.309 135.665 307.848 144.34 307.828 155.018C307.808 165.697 296.972 167.767 285.185 167.746Z" fill="#E0B0FF"/>
<path d="M331.497 192.048C328.116 203.777 318.244 211.987 307.947 218.962C306.509 219.936 305.07 220.888 303.632 221.817C303.622 221.821 303.612 221.83 303.602 221.834C303.533 221.879 303.463 221.923 303.399 221.968C303.102 222.16 302.805 222.351 302.511 222.54L302.672 222.613C302.672 222.613 302.831 222.698 302.657 222.627C302.606 222.605 302.551 222.586 302.5 222.564C296.518 220.151 290.429 217.56 285.844 213.041C281.089 208.347 278.309 200.985 280.885 194.819C281.223 194.011 281.651 193.244 282.159 192.531C282.368 192.232 282.593 191.946 282.827 191.665C284.248 189.932 286.104 188.608 288.206 187.829C290.308 187.051 292.579 186.847 294.787 187.237C296.994 187.628 299.057 188.599 300.764 190.051C302.471 191.503 303.761 193.384 304.5 195.5C305.257 188.456 299.449 182.555 293.859 178.202C288.267 173.85 281.913 169.112 280.831 162.107C280.228 158.209 281.583 154.432 284.052 151.4C284.128 151.308 284.205 151.216 284.283 151.127C287.289 147.595 291.516 145.327 296.12 144.776C304.695 143.885 313.024 148.424 319.253 154.386C329.279 163.978 335.341 178.712 331.497 192.048Z" fill="#E6E6E6"/>
<path d="M315.38 176.707C317.025 179.267 318.289 182.054 319.13 184.979C319.842 187.593 320.159 190.299 320.07 193.007C319.84 198.58 318.276 204.015 315.508 208.857C313.424 212.531 310.883 215.926 307.947 218.962C306.509 219.936 305.07 220.888 303.632 221.817C303.622 221.821 303.612 221.83 303.602 221.834C303.533 221.879 303.464 221.924 303.399 221.968C303.102 222.16 302.805 222.351 302.511 222.54C302.511 222.54 302.831 222.698 302.657 222.627C302.606 222.605 302.551 222.586 302.5 222.564C303.036 218.168 302.511 213.708 300.968 209.556C299.425 205.405 296.91 201.685 293.633 198.706C290.349 195.772 286.417 193.657 282.159 192.531C282.368 192.232 282.593 191.946 282.827 191.665C284.472 192.127 286.072 192.732 287.61 193.475C293.107 196.115 297.608 200.455 300.447 205.851C302.994 210.752 304.091 216.278 303.607 221.78C303.853 221.557 304.099 221.329 304.338 221.104C308.884 216.866 312.921 212.001 315.654 206.387C318.025 201.632 319.19 196.367 319.047 191.056C318.824 185.266 316.516 179.902 313.176 175.232C309.514 170.25 305.189 165.793 300.32 161.983C295.413 158.052 290.043 154.737 284.331 152.111C284.202 152.051 284.101 151.944 284.049 151.812C283.997 151.679 283.998 151.532 284.052 151.4C284.09 151.282 284.173 151.184 284.283 151.127C284.34 151.102 284.402 151.091 284.463 151.093C284.525 151.096 284.585 151.113 284.64 151.142C285.345 151.466 286.045 151.796 286.74 152.139C292.527 154.999 297.936 158.567 302.843 162.761C307.583 166.802 312.045 171.419 315.38 176.707Z" fill="white"/>
<path d="M49.3306 224.555C53.3604 224.555 56.6272 223.33 56.6272 221.819C56.6272 220.307 53.3604 219.082 49.3306 219.082C45.3008 219.082 42.034 220.307 42.034 221.819C42.034 223.33 45.3008 224.555 49.3306 224.555Z" fill="#2F2E41"/>
<path d="M66.8423 224.19C70.8721 224.19 74.1388 222.965 74.1388 221.454C74.1388 219.943 70.8721 218.718 66.8423 218.718C62.8125 218.718 59.5457 219.943 59.5457 221.454C59.5457 222.965 62.8125 224.19 66.8423 224.19Z" fill="#2F2E41"/>
<path d="M90.0898 178.2C96.9849 174.225 101.563 169.248 100.315 167.083C99.0672 164.918 92.4661 166.386 85.5709 170.361C78.6758 174.336 74.0978 179.313 75.3456 181.477C76.5935 183.642 83.1946 182.174 90.0898 178.2Z" fill="#2F2E41"/>
<path d="M83.617 187.946C86.1668 172.234 75.4966 157.43 59.7845 154.88C44.0725 152.33 29.2683 163.001 26.7186 178.713C24.1689 194.425 34.8391 209.229 50.5512 211.779C66.2632 214.328 81.0673 203.658 83.617 187.946Z" fill="#2F2E41"/>
<path d="M50.7899 205.949H42.034V221.636H50.7899V205.949Z" fill="#2F2E41"/>
<path d="M68.3016 205.949H59.5457V221.636H68.3016V205.949Z" fill="#2F2E41"/>
<path d="M55.8975 185.883C61.3377 185.883 65.7478 181.473 65.7478 176.033C65.7478 170.593 61.3377 166.182 55.8975 166.182C50.4573 166.182 46.0471 170.593 46.0471 176.033C46.0471 181.473 50.4573 185.883 55.8975 185.883Z" fill="white"/>
<path d="M55.8975 179.316C57.7109 179.316 59.1809 177.846 59.1809 176.033C59.1809 174.219 57.7109 172.749 55.8975 172.749C54.0841 172.749 52.614 174.219 52.614 176.033C52.614 177.846 54.0841 179.316 55.8975 179.316Z" fill="#3F3D56"/>
<path d="M27.2102 156.526C24.883 146.104 32.3221 135.573 43.8259 133.004C55.3297 130.435 66.5419 136.802 68.8691 147.224C71.1963 157.646 63.5723 161.49 52.0685 164.059C40.5647 166.628 29.5374 166.949 27.2102 156.526Z" fill="#E6E6E6"/>
<path d="M35.7258 176.131C36.7965 173.874 31.835 169.279 24.644 165.869C17.453 162.458 10.7556 161.523 9.68493 163.781C8.61425 166.038 13.5757 170.633 20.7667 174.044C27.9577 177.454 34.6551 178.389 35.7258 176.131Z" fill="#2F2E41"/>
<path d="M41.0109 193.727C41.0109 196.548 48.274 202.118 56.3336 202.118C64.3931 202.118 71.9499 194.176 71.9499 191.355C71.9499 188.535 64.3931 191.903 56.3336 191.903C48.2741 191.903 41.0109 190.906 41.0109 193.727Z" fill="white"/>
<path d="M155.666 224.555C159.695 224.555 162.962 223.33 162.962 221.819C162.962 220.307 159.695 219.082 155.666 219.082C151.636 219.082 148.369 220.307 148.369 221.819C148.369 223.33 151.636 224.555 155.666 224.555Z" fill="#2F2E41"/>
<path d="M138.154 224.19C142.184 224.19 145.45 222.965 145.45 221.454C145.45 219.943 142.184 218.718 138.154 218.718C134.124 218.718 130.857 219.943 130.857 221.454C130.857 222.965 134.124 224.19 138.154 224.19Z" fill="#2F2E41"/>
<path d="M129.651 181.477C130.898 179.313 126.32 174.336 119.425 170.361C112.53 166.386 105.929 164.918 104.681 167.083C103.433 169.248 108.011 174.225 114.906 178.199C121.802 182.174 128.403 183.642 129.651 181.477Z" fill="#2F2E41"/>
<path d="M149.828 212.151C165.746 212.151 178.65 199.247 178.65 183.329C178.65 167.412 165.746 154.508 149.828 154.508C133.911 154.508 121.007 167.412 121.007 183.329C121.007 199.247 133.911 212.151 149.828 212.151Z" fill="#2F2E41"/>
<path d="M162.962 205.949H154.206V221.636H162.962V205.949Z" fill="#2F2E41"/>
<path d="M145.45 205.949H136.695V221.636H145.45V205.949Z" fill="#2F2E41"/>
<path d="M143.076 185.883C148.516 185.883 152.926 181.473 152.926 176.033C152.926 170.593 148.516 166.182 143.076 166.182C137.636 166.182 133.225 170.593 133.225 176.033C133.225 181.473 137.636 185.883 143.076 185.883Z" fill="white"/>
<path d="M140.702 177.007C141.989 175.722 141.997 173.644 140.721 172.367C139.444 171.089 137.367 171.096 136.08 172.381C134.794 173.667 134.785 175.744 136.062 177.022C137.338 178.299 139.416 178.293 140.702 177.007Z" fill="#3F3D56"/>
<path d="M152.928 164.059C141.424 161.49 133.8 157.646 136.127 147.224C138.454 136.802 149.666 130.435 161.17 133.004C172.674 135.573 180.113 146.104 177.786 156.526C175.459 166.948 164.431 166.628 152.928 164.059Z" fill="#E0B0FF"/>
<path d="M179.967 205.299C182.382 204.657 182.683 197.902 180.64 190.21C178.597 182.518 174.983 176.802 172.569 177.443C170.154 178.085 169.852 184.84 171.895 192.532C173.939 200.224 177.552 205.94 179.967 205.299Z" fill="#2F2E41"/>
<path d="M143.299 191.903C138.008 191.903 133.046 188.535 133.046 191.356C133.046 194.177 138.007 202.118 143.299 202.118C148.59 202.118 153.359 196.548 153.359 193.727C153.359 190.906 148.59 191.903 143.299 191.903Z" fill="white"/>
<path d="M106.052 135.542H103.492C101.199 135.54 99.0012 134.628 97.3799 133.007C95.7586 131.385 94.8467 129.187 94.8441 126.894V124.745C94.8441 119.423 95.8525 114.967 97.8415 111.5C100.252 107.467 103.064 103.689 106.235 100.223C108.34 98.1058 110.25 95.8035 111.942 93.3439C113.156 91.433 113.782 89.208 113.744 86.9445C113.744 81.6055 110.266 79.01 103.11 79.01C99.1405 79.0549 95.1962 79.6469 91.3885 80.7693C89.9201 81.1885 88.3744 81.2611 86.8731 80.9815C85.3718 80.7018 83.956 80.0776 82.7369 79.1579C81.5178 78.2381 80.5289 77.048 79.8479 75.6812C79.1668 74.3143 78.8124 72.8081 78.8123 71.281V66.9311C78.8039 65.0585 79.3388 63.2237 80.3523 61.6491C81.3658 60.0745 82.8143 58.8276 84.5222 58.0597C91.247 55.1898 98.4992 53.7632 105.81 53.8719C113.469 53.8719 120.382 55.1584 126.36 57.6951C132.348 60.2376 137.078 63.8229 140.421 68.3515C143.753 72.8481 145.524 78.3106 145.464 83.9069C145.464 89.9164 143.823 95.1506 140.588 99.4639C137.387 103.733 132.799 108.407 126.952 113.357C123.871 115.919 120.951 118.67 118.209 121.593C116.439 123.5 115.187 125.83 114.575 128.359C114.234 130.372 113.19 132.197 111.629 133.513C110.069 134.828 108.093 135.547 106.052 135.542Z" fill="#E0B0FF"/>
<path d="M104.629 176.212H104.291C100.042 176.209 95.9677 174.519 92.964 171.513C89.9603 168.508 88.273 164.432 88.273 160.183C88.273 155.934 89.9603 151.859 92.964 148.853C95.9677 145.847 100.042 144.157 104.291 144.155H104.629C106.735 144.153 108.82 144.567 110.766 145.372C112.712 146.177 114.48 147.357 115.969 148.846C117.459 150.334 118.64 152.102 119.446 154.047C120.253 155.992 120.668 158.077 120.668 160.183C120.668 162.289 120.253 164.374 119.446 166.319C118.64 168.265 117.459 170.032 115.969 171.521C114.48 173.009 112.712 174.19 110.766 174.995C108.82 175.799 106.735 176.213 104.629 176.212Z" fill="#E0B0FF"/>
<path d="M208.795 224.857H0.669216C0.491729 224.857 0.321521 224.786 0.196019 224.661C0.0705162 224.535 0 224.365 0 224.187C0 224.01 0.0705162 223.84 0.196019 223.714C0.321521 223.589 0.491729 223.518 0.669216 223.518H208.795C208.973 223.518 209.143 223.589 209.269 223.714C209.394 223.84 209.465 224.01 209.465 224.187C209.465 224.365 209.394 224.535 209.269 224.661C209.143 224.786 208.973 224.857 208.795 224.857Z" fill="#CCCCCC"/>
<path d="M349.331 224.857H238.241C238.063 224.857 237.893 224.786 237.768 224.661C237.642 224.535 237.572 224.365 237.572 224.187C237.572 224.01 237.642 223.84 237.768 223.714C237.893 223.589 238.063 223.518 238.241 223.518H349.331C349.508 223.518 349.678 223.589 349.804 223.714C349.929 223.84 350 224.01 350 224.187C350 224.365 349.929 224.535 349.804 224.661C349.678 224.786 349.508 224.857 349.331 224.857Z" fill="#CCCCCC"/>
<path d="M280.382 205.309C288.339 205.153 294.75 203.002 294.701 200.504C294.653 198.006 288.162 196.107 280.205 196.263C272.248 196.418 265.837 198.57 265.886 201.068C265.934 203.566 272.425 205.465 280.382 205.309Z" fill="#2F2E41"/>
<path d="M273.148 99.7132H255.749C254.861 99.7122 254.011 99.3593 253.384 98.732C252.756 98.1047 252.404 97.2542 252.403 96.3671V78.9675C252.404 78.0804 252.756 77.2299 253.384 76.6026C254.011 75.9753 254.861 75.6224 255.749 75.6214H273.148C274.035 75.6224 274.886 75.9753 275.513 76.6026C276.14 77.2299 276.493 78.0804 276.494 78.9675V96.3671C276.493 97.2542 276.14 98.1047 275.513 98.732C274.886 99.3593 274.035 99.7122 273.148 99.7132ZM255.749 76.9598C255.216 76.9604 254.706 77.1721 254.33 77.5485C253.953 77.9249 253.742 78.4352 253.741 78.9675V96.3671C253.742 96.8994 253.953 97.4097 254.33 97.7861C254.706 98.1625 255.216 98.3742 255.749 98.3747H273.148C273.681 98.3742 274.191 98.1625 274.567 97.7861C274.944 97.4097 275.155 96.8994 275.156 96.3671V78.9675C275.155 78.4352 274.944 77.9249 274.567 77.5485C274.191 77.1721 273.681 76.9604 273.148 76.9598H255.749Z" fill="#F2F2F2"/>
<path d="M281.179 88.3365H263.779C262.892 88.3355 262.042 87.9826 261.414 87.3554C260.787 86.7281 260.434 85.8776 260.433 84.9905V67.5908C260.434 66.7037 260.787 65.8532 261.414 65.2259C262.042 64.5986 262.892 64.2458 263.779 64.2448H281.179C282.066 64.2458 282.916 64.5986 283.544 65.2259C284.171 65.8532 284.524 66.7037 284.525 67.5908V84.9905C284.524 85.8776 284.171 86.7281 283.544 87.3554C282.916 87.9826 282.066 88.3355 281.179 88.3365ZM263.779 65.5832C263.247 65.5838 262.737 65.7955 262.36 66.1719C261.984 66.5482 261.772 67.0585 261.772 67.5908V84.9905C261.772 85.5227 261.984 86.0331 262.36 86.4094C262.737 86.7858 263.247 86.9975 263.779 86.9981H281.179C281.711 86.9975 282.221 86.7858 282.598 86.4094C282.974 86.0331 283.186 85.5227 283.186 84.9905V67.5908C283.186 67.0585 282.974 66.5482 282.598 66.1719C282.221 65.7955 281.711 65.5838 281.179 65.5832H263.779Z" fill="#F2F2F2"/>
<path d="M143.989 32.7916H126.59C125.703 32.7906 124.852 32.4377 124.225 31.8104C123.598 31.1831 123.245 30.3326 123.244 29.4455V12.0459C123.245 11.1588 123.598 10.3083 124.225 9.68097C124.852 9.05368 125.703 8.70081 126.59 8.6998H143.989C144.877 8.70081 145.727 9.05368 146.354 9.68097C146.982 10.3083 147.335 11.1588 147.336 12.0459V29.4455C147.335 30.3326 146.982 31.1831 146.354 31.8104C145.727 32.4377 144.877 32.7906 143.989 32.7916ZM126.59 10.0382C126.058 10.0388 125.547 10.2505 125.171 10.6269C124.795 11.0033 124.583 11.5136 124.582 12.0459V29.4455C124.583 29.9778 124.795 30.4881 125.171 30.8645C125.547 31.2409 126.058 31.4526 126.59 31.4531H143.989C144.522 31.4526 145.032 31.2409 145.408 30.8645C145.785 30.4881 145.997 29.9778 145.997 29.4455V12.0459C145.997 11.5136 145.785 11.0033 145.408 10.6269C145.032 10.2505 144.522 10.0388 143.989 10.0382H126.59Z" fill="#F2F2F2"/>
<path d="M133.282 24.0918H115.882C114.995 24.0908 114.145 23.7379 113.517 23.1106C112.89 22.4833 112.537 21.6328 112.536 20.7457V3.34608C112.537 2.45896 112.89 1.60847 113.517 0.981175C114.145 0.353883 114.995 0.0010149 115.882 0H133.282C134.169 0.0010149 135.02 0.353883 135.647 0.981175C136.274 1.60847 136.627 2.45896 136.628 3.34608V20.7457C136.627 21.6328 136.274 22.4833 135.647 23.1106C135.02 23.7379 134.169 24.0908 133.282 24.0918ZM115.882 1.33843C115.35 1.33901 114.84 1.55072 114.463 1.9271C114.087 2.30348 113.875 2.8138 113.875 3.34608V20.7457C113.875 21.278 114.087 21.7883 114.463 22.1647C114.84 22.5411 115.35 22.7528 115.882 22.7533H133.282C133.814 22.7528 134.325 22.5411 134.701 22.1647C135.077 21.7883 135.289 21.278 135.29 20.7457V3.34608C135.289 2.8138 135.077 2.30348 134.701 1.9271C134.325 1.55072 133.814 1.33901 133.282 1.33843H115.882Z" fill="#F2F2F2"/>
<path d="M214.966 126.908C217.356 126.908 219.294 124.971 219.294 122.58C219.294 120.19 217.356 118.253 214.966 118.253C212.576 118.253 210.638 120.19 210.638 122.58C210.638 124.971 212.576 126.908 214.966 126.908Z" fill="#F2F2F2"/>
<path d="M40.9697 111.516C43.3599 111.516 45.2975 109.579 45.2975 107.188C45.2975 104.798 43.3599 102.861 40.9697 102.861C38.5796 102.861 36.642 104.798 36.642 107.188C36.642 109.579 38.5796 111.516 40.9697 111.516Z" fill="#F2F2F2"/>
<path d="M332.748 148.992C335.138 148.992 337.076 147.055 337.076 144.665C337.076 142.274 335.138 140.337 332.748 140.337C330.358 140.337 328.42 142.274 328.42 144.665C328.42 147.055 330.358 148.992 332.748 148.992Z" fill="#F2F2F2"/>
</g>
<defs>
<clipPath id="clip0_13_108">
<rect width="350" height="224.857" fill="white"/>
</clipPath>
</defs>
</svg>
